<?xml version="1.0" encoding="UTF-8"?>
<!-- Generated by SVGo -->
<svg width="168.113mm" height="153.826mm" viewBox="0.000 0.000 168.113 153.826" xmlns="http://www.w3.org/2000/svg" xmlns:xlink="http://www.w3.org/1999/xlink">
<polygon points="163.113,148.826 5.000,148.826 5.000,5.000 163.113,5.000" style="fill:none;stroke-width:0.050000mm;stroke:black"/>
<polygon points="124.681,122.300 124.681,123.300 123.881,123.300 123.881,126.400 124.681,126.400 124.681,127.000 123.156,127.000 123.156,123.770 116.406,123.770 116.406,127.000 115.581,127.000 115.581,129.800 116.406,129.800 116.406,136.070 118.131,136.070 118.131,137.270 121.431,137.270 121.431,136.070 123.156,136.070 123.156,131.600 124.681,131.600 124.681,132.200 123.881,132.200 123.881,135.300 124.681,135.300 124.681,136.300 138.681,136.300 138.681,135.300 139.481,135.300 139.481,132.200 138.681,132.200 138.681,131.600 140.206,131.600 140.206,136.070 141.931,136.070 141.931,137.270 145.231,137.270 145.231,136.070 146.956,136.070 146.956,129.800 147.781,129.800 147.781,127.000 146.956,127.000 146.956,123.770 140.206,123.770 140.206,127.000 138.681,127.000 138.681,126.400 139.481,126.400 139.481,123.300 138.681,123.300 138.681,122.300" style="fill:none;stroke-width:0.050000mm;stroke:black"/>
<polygon points="19.906,122.300 19.906,123.300 19.106,123.300 19.106,126.400 19.906,126.400 19.906,132.200 19.106,132.200 19.106,135.300 19.906,135.300 19.906,136.300 33.906,136.300 33.906,135.300 34.706,135.300 34.706,132.200 33.906,132.200 33.906,126.400 34.706,126.400 34.706,123.300 33.906,123.300 33.906,122.300" style="fill:none;stroke-width:0.050000mm;stroke:black"/>
<polygon points="43.718,122.300 43.718,123.300 42.918,123.300 42.918,126.400 43.718,126.400 43.718,132.200 42.918,132.200 42.918,135.300 43.718,135.300 43.718,136.300 57.718,136.300 57.718,135.300 58.518,135.300 58.518,132.200 57.718,132.200 57.718,126.400 58.518,126.400 58.518,123.300 57.718,123.300 57.718,122.300" style="fill:none;stroke-width:0.050000mm;stroke:black"/>
<polygon points="67.531,122.300 67.531,123.300 66.731,123.300 66.731,126.400 67.531,126.400 67.531,132.200 66.731,132.200 66.731,135.300 67.531,135.300 67.531,136.300 81.531,136.300 81.531,135.300 82.331,135.300 82.331,132.200 81.531,132.200 81.531,126.400 82.331,126.400 82.331,123.300 81.531,123.300 81.531,122.300" style="fill:none;stroke-width:0.050000mm;stroke:black"/>
<polygon points="91.343,122.300 91.343,123.300 90.543,123.300 90.543,126.400 91.343,126.400 91.343,132.200 90.543,132.200 90.543,135.300 91.343,135.300 91.343,136.300 105.343,136.300 105.343,135.300 106.143,135.300 106.143,132.200 105.343,132.200 105.343,126.400 106.143,126.400 106.143,123.300 105.343,123.300 105.343,122.300" style="fill:none;stroke-width:0.050000mm;stroke:black"/>
<polygon points="19.906,103.250 19.906,104.250 19.106,104.250 19.106,107.350 19.906,107.350 19.906,113.150 19.106,113.150 19.106,116.250 19.906,116.250 19.906,117.250 33.906,117.250 33.906,116.250 34.706,116.250 34.706,113.150 33.906,113.150 33.906,107.350 34.706,107.350 34.706,104.250 33.906,104.250 33.906,103.250" style="fill:none;stroke-width:0.050000mm;stroke:black"/>
<polygon points="41.337,103.250 41.337,104.250 40.537,104.250 40.537,107.350 41.337,107.350 41.337,113.150 40.537,113.150 40.537,116.250 41.337,116.250 41.337,117.250 55.337,117.250 55.337,116.250 56.137,116.250 56.137,113.150 55.337,113.150 55.337,107.350 56.137,107.350 56.137,104.250 55.337,104.250 55.337,103.250" style="fill:none;stroke-width:0.050000mm;stroke:black"/>
<polygon points="60.387,103.250 60.387,104.250 59.587,104.250 59.587,107.350 60.387,107.350 60.387,113.150 59.587,113.150 59.587,116.250 60.387,116.250 60.387,117.250 74.387,117.250 74.387,116.250 75.187,116.250 75.187,113.150 74.387,113.150 74.387,107.350 75.187,107.350 75.187,104.250 74.387,104.250 74.387,103.250" style="fill:none;stroke-width:0.050000mm;stroke:black"/>
<polygon points="79.437,103.250 79.437,104.250 78.637,104.250 78.637,107.350 79.437,107.350 79.437,113.150 78.637,113.150 78.637,116.250 79.437,116.250 79.437,117.250 93.437,117.250 93.437,116.250 94.237,116.250 94.237,113.150 93.437,113.150 93.437,107.350 94.237,107.350 94.237,104.250 93.437,104.250 93.437,103.250" style="fill:none;stroke-width:0.050000mm;stroke:black"/>
<polygon points="98.487,103.250 98.487,104.250 97.687,104.250 97.687,107.350 98.487,107.350 98.487,113.150 97.687,113.150 97.687,116.250 98.487,116.250 98.487,117.250 112.487,117.250 112.487,116.250 113.287,116.250 113.287,113.150 112.487,113.150 112.487,107.350 113.287,107.350 113.287,104.250 112.487,104.250 112.487,103.250" style="fill:none;stroke-width:0.050000mm;stroke:black"/>
<polygon points="117.537,103.250 117.537,104.250 116.737,104.250 116.737,107.350 117.537,107.350 117.537,113.150 116.737,113.150 116.737,116.250 117.537,116.250 117.537,117.250 131.537,117.250 131.537,116.250 132.337,116.250 132.337,113.150 131.537,113.150 131.537,107.350 132.337,107.350 132.337,104.250 131.537,104.250 131.537,103.250" style="fill:none;stroke-width:0.050000mm;stroke:black"/>
<polygon points="136.587,103.250 136.587,104.250 135.787,104.250 135.787,107.350 136.587,107.350 136.587,113.150 135.787,113.150 135.787,116.250 136.587,116.250 136.587,117.250 150.587,117.250 150.587,116.250 151.387,116.250 151.387,113.150 150.587,113.150 150.587,107.350 151.387,107.350 151.387,104.250 150.587,104.250 150.587,103.250" style="fill:none;stroke-width:0.050000mm;stroke:black"/>
<polygon points="24.668,84.200 24.668,85.200 23.868,85.200 23.868,88.300 24.668,88.300 24.668,94.100 23.868,94.100 23.868,97.200 24.668,97.200 24.668,98.200 38.668,98.200 38.668,97.200 39.468,97.200 39.468,94.100 38.668,94.100 38.668,88.300 39.468,88.300 39.468,85.200 38.668,85.200 38.668,84.200" style="fill:none;stroke-width:0.050000mm;stroke:black"/>
<polygon points="50.862,84.200 50.862,85.200 50.062,85.200 50.062,88.300 50.862,88.300 50.862,94.100 50.062,94.100 50.062,97.200 50.862,97.200 50.862,98.200 64.861,98.200 64.861,97.200 65.662,97.200 65.662,94.100 64.861,94.100 64.861,88.300 65.662,88.300 65.662,85.200 64.861,85.200 64.861,84.200" style="fill:none;stroke-width:0.050000mm;stroke:black"/>
<polygon points="69.912,84.200 69.912,85.200 69.112,85.200 69.112,88.300 69.912,88.300 69.912,94.100 69.112,94.100 69.112,97.200 69.912,97.200 69.912,98.200 83.912,98.200 83.912,97.200 84.712,97.200 84.712,94.100 83.912,94.100 83.912,88.300 84.712,88.300 84.712,85.200 83.912,85.200 83.912,84.200" style="fill:none;stroke-width:0.050000mm;stroke:black"/>
<polygon points="88.962,84.200 88.962,85.200 88.162,85.200 88.162,88.300 88.962,88.300 88.962,94.100 88.162,94.100 88.162,97.200 88.962,97.200 88.962,98.200 102.962,98.200 102.962,97.200 103.762,97.200 103.762,94.100 102.962,94.100 102.962,88.300 103.762,88.300 103.762,85.200 102.962,85.200 102.962,84.200" style="fill:none;stroke-width:0.050000mm;stroke:black"/>
<polygon points="108.012,84.200 108.012,85.200 107.212,85.200 107.212,88.300 108.012,88.300 108.012,94.100 107.212,94.100 107.212,97.200 108.012,97.200 108.012,98.200 122.012,98.200 122.012,97.200 122.812,97.200 122.812,94.100 122.012,94.100 122.012,88.300 122.812,88.300 122.812,85.200 122.012,85.200 122.012,84.200" style="fill:none;stroke-width:0.050000mm;stroke:black"/>
<polygon points="127.062,84.200 127.062,85.200 126.262,85.200 126.262,88.300 127.062,88.300 127.062,94.100 126.262,94.100 126.262,97.200 127.062,97.200 127.062,98.200 141.062,98.200 141.062,97.200 141.862,97.200 141.862,94.100 141.062,94.100 141.062,88.300 141.862,88.300 141.862,85.200 141.062,85.200 141.062,84.200" style="fill:none;stroke-width:0.050000mm;stroke:black"/>
<polygon points="22.287,65.150 22.287,66.150 21.487,66.150 21.487,69.250 22.287,69.250 22.287,75.050 21.487,75.050 21.487,78.150 22.287,78.150 22.287,79.150 36.287,79.150 36.287,78.150 37.087,78.150 37.087,75.050 36.287,75.050 36.287,69.250 37.087,69.250 37.087,66.150 36.287,66.150 36.287,65.150" style="fill:none;stroke-width:0.050000mm;stroke:black"/>
<polygon points="46.100,65.150 46.100,66.150 45.300,66.150 45.300,69.250 46.100,69.250 46.100,75.050 45.300,75.050 45.300,78.150 46.100,78.150 46.100,79.150 60.100,79.150 60.100,78.150 60.900,78.150 60.900,75.050 60.100,75.050 60.100,69.250 60.900,69.250 60.900,66.150 60.100,66.150 60.100,65.150" style="fill:none;stroke-width:0.050000mm;stroke:black"/>
<polygon points="65.150,65.150 65.150,66.150 64.349,66.150 64.349,69.250 65.150,69.250 65.150,75.050 64.349,75.050 64.349,78.150 65.150,78.150 65.150,79.150 79.150,79.150 79.150,78.150 79.950,78.150 79.950,75.050 79.150,75.050 79.150,69.250 79.950,69.250 79.950,66.150 79.150,66.150 79.150,65.150" style="fill:none;stroke-width:0.050000mm;stroke:black"/>
<polygon points="84.200,65.150 84.200,66.150 83.400,66.150 83.400,69.250 84.200,69.250 84.200,75.050 83.400,75.050 83.400,78.150 84.200,78.150 84.200,79.150 98.200,79.150 98.200,78.150 99.000,78.150 99.000,75.050 98.200,75.050 98.200,69.250 99.000,69.250 99.000,66.150 98.200,66.150 98.200,65.150" style="fill:none;stroke-width:0.050000mm;stroke:black"/>
<polygon points="103.250,65.150 103.250,66.150 102.450,66.150 102.450,69.250 103.250,69.250 103.250,75.050 102.450,75.050 102.450,78.150 103.250,78.150 103.250,79.150 117.250,79.150 117.250,78.150 118.050,78.150 118.050,75.050 117.250,75.050 117.250,69.250 118.050,69.250 118.050,66.150 117.250,66.150 117.250,65.150" style="fill:none;stroke-width:0.050000mm;stroke:black"/>
<polygon points="122.300,65.150 122.300,66.150 121.500,66.150 121.500,69.250 122.300,69.250 122.300,75.050 121.500,75.050 121.500,78.150 122.300,78.150 122.300,79.150 136.300,79.150 136.300,78.150 137.100,78.150 137.100,75.050 136.300,75.050 136.300,69.250 137.100,69.250 137.100,66.150 136.300,66.150 136.300,65.150" style="fill:none;stroke-width:0.050000mm;stroke:black"/>
<polygon points="17.525,46.100 17.525,47.100 16.724,47.100 16.724,50.200 17.525,50.200 17.525,56.000 16.724,56.000 16.724,59.100 17.525,59.100 17.525,60.100 31.525,60.100 31.525,59.100 32.323,59.100 32.323,56.000 31.525,56.000 31.525,50.200 32.323,50.200 32.323,47.100 31.525,47.100 31.525,46.100" style="fill:none;stroke-width:0.050000mm;stroke:black"/>
<polygon points="36.575,46.100 36.575,47.100 35.775,47.100 35.775,50.200 36.575,50.200 36.575,56.000 35.775,56.000 35.775,59.100 36.575,59.100 36.575,60.100 50.575,60.100 50.575,59.100 51.375,59.100 51.375,56.000 50.575,56.000 50.575,50.200 51.375,50.200 51.375,47.100 50.575,47.100 50.575,46.100" style="fill:none;stroke-width:0.050000mm;stroke:black"/>
<polygon points="55.625,46.100 55.625,47.100 54.825,47.100 54.825,50.200 55.625,50.200 55.625,56.000 54.825,56.000 54.825,59.100 55.625,59.100 55.625,60.100 69.625,60.100 69.625,59.100 70.425,59.100 70.425,56.000 69.625,56.000 69.625,50.200 70.425,50.200 70.425,47.100 69.625,47.100 69.625,46.100" style="fill:none;stroke-width:0.050000mm;stroke:black"/>
<polygon points="74.675,46.100 74.675,47.100 73.875,47.100 73.875,50.200 74.675,50.200 74.675,56.000 73.875,56.000 73.875,59.100 74.675,59.100 74.675,60.100 88.675,60.100 88.675,59.100 89.475,59.100 89.475,56.000 88.675,56.000 88.675,50.200 89.475,50.200 89.475,47.100 88.675,47.100 88.675,46.100" style="fill:none;stroke-width:0.050000mm;stroke:black"/>
<polygon points="93.725,46.100 93.725,47.100 92.925,47.100 92.925,50.200 93.725,50.200 93.725,56.000 92.925,56.000 92.925,59.100 93.725,59.100 93.725,60.100 107.725,60.100 107.725,59.100 108.524,59.100 108.524,56.000 107.725,56.000 107.725,50.200 108.524,50.200 108.524,47.100 107.725,47.100 107.725,46.100" style="fill:none;stroke-width:0.050000mm;stroke:black"/>
<polygon points="112.774,46.100 112.774,47.100 111.975,47.100 111.975,50.200 112.774,50.200 112.774,56.000 111.975,56.000 111.975,59.100 112.774,59.100 112.774,60.100 126.774,60.100 126.774,59.100 127.574,59.100 127.574,56.000 126.774,56.000 126.774,50.200 127.574,50.200 127.574,47.100 126.774,47.100 126.774,46.100" style="fill:none;stroke-width:0.050000mm;stroke:black"/>
<polygon points="131.825,46.100 131.825,47.100 131.024,47.100 131.024,50.200 131.825,50.200 131.825,56.000 131.024,56.000 131.024,59.100 131.825,59.100 131.825,60.100 145.825,60.100 145.825,59.100 146.625,59.100 146.625,56.000 145.825,56.000 145.825,50.200 146.625,50.200 146.625,47.100 145.825,47.100 145.825,46.100" style="fill:none;stroke-width:0.050000mm;stroke:black"/>
<polygon points="17.525,22.287 17.525,23.287 16.724,23.287 16.724,26.387 17.525,26.387 17.525,32.186 16.724,32.186 16.724,35.287 17.525,35.287 17.525,36.287 31.525,36.287 31.525,35.287 32.323,35.287 32.323,32.186 31.525,32.186 31.525,26.387 32.323,26.387 32.323,23.287 31.525,23.287 31.525,22.287" style="fill:none;stroke-width:0.050000mm;stroke:black"/>
<polygon points="36.575,22.287 36.575,23.287 35.775,23.287 35.775,26.387 36.575,26.387 36.575,32.186 35.775,32.186 35.775,35.287 36.575,35.287 36.575,36.287 50.575,36.287 50.575,35.287 51.375,35.287 51.375,32.186 50.575,32.186 50.575,26.387 51.375,26.387 51.375,23.287 50.575,23.287 50.575,22.287" style="fill:none;stroke-width:0.050000mm;stroke:black"/>
<polygon points="55.625,22.287 55.625,23.287 54.825,23.287 54.825,26.387 55.625,26.387 55.625,32.186 54.825,32.186 54.825,35.287 55.625,35.287 55.625,36.287 69.625,36.287 69.625,35.287 70.425,35.287 70.425,32.186 69.625,32.186 69.625,26.387 70.425,26.387 70.425,23.287 69.625,23.287 69.625,22.287" style="fill:none;stroke-width:0.050000mm;stroke:black"/>
<polygon points="74.675,22.287 74.675,23.287 73.875,23.287 73.875,26.387 74.675,26.387 74.675,32.186 73.875,32.186 73.875,35.287 74.675,35.287 74.675,36.287 88.675,36.287 88.675,35.287 89.475,35.287 89.475,32.186 88.675,32.186 88.675,26.387 89.475,26.387 89.475,23.287 88.675,23.287 88.675,22.287" style="fill:none;stroke-width:0.050000mm;stroke:black"/>
<polygon points="93.725,22.287 93.725,23.287 92.925,23.287 92.925,26.387 93.725,26.387 93.725,32.186 92.925,32.186 92.925,35.287 93.725,35.287 93.725,36.287 107.725,36.287 107.725,35.287 108.524,35.287 108.524,32.186 107.725,32.186 107.725,26.387 108.524,26.387 108.524,23.287 107.725,23.287 107.725,22.287" style="fill:none;stroke-width:0.050000mm;stroke:black"/>
<polygon points="112.774,22.287 112.774,23.287 111.975,23.287 111.975,26.387 112.774,26.387 112.774,32.186 111.975,32.186 111.975,35.287 112.774,35.287 112.774,36.287 126.774,36.287 126.774,35.287 127.574,35.287 127.574,32.186 126.774,32.186 126.774,26.387 127.574,26.387 127.574,23.287 126.774,23.287 126.774,22.287" style="fill:none;stroke-width:0.050000mm;stroke:black"/>
<polygon points="131.825,22.287 131.825,23.287 131.024,23.287 131.024,26.387 131.825,26.387 131.825,32.186 131.024,32.186 131.024,35.287 131.825,35.287 131.825,36.287 145.825,36.287 145.825,35.287 146.625,35.287 146.625,32.186 145.825,32.186 145.825,26.387 146.625,26.387 146.625,23.287 145.825,23.287 145.825,22.287" style="fill:none;stroke-width:0.050000mm;stroke:black"/>
</svg>