<?xml version="1.0" encoding="UTF-8"?>
<!-- Generated by SVGo -->
<svg width="210.976mm" height="153.826mm" viewBox="0.000 0.000 210.976 153.826" xmlns="http://www.w3.org/2000/svg" xmlns:xlink="http://www.w3.org/1999/xlink">
<polygon points="205.976,148.826 5.000,148.826 5.000,5.000 205.976,5.000" style="fill:none;stroke-width:0.050000mm;stroke:black"/>
<polygon points="43.718,122.300 43.718,123.300 42.918,123.300 42.918,126.400 43.718,126.400 43.718,127.000 42.193,127.000 42.193,123.770 35.443,123.770 35.443,127.000 34.618,127.000 34.618,129.800 35.443,129.800 35.443,136.070 37.168,136.070 37.168,137.270 40.468,137.270 40.468,136.070 42.193,136.070 42.193,131.600 43.718,131.600 43.718,132.200 42.918,132.200 42.918,135.300 43.718,135.300 43.718,136.300 57.718,136.300 57.718,135.300 58.518,135.300 58.518,132.200 57.718,132.200 57.718,131.600 59.243,131.600 59.243,136.070 60.968,136.070 60.968,137.270 64.268,137.270 64.268,136.070 65.993,136.070 65.993,129.800 66.818,129.800 66.818,127.000 65.993,127.000 65.993,123.770 59.243,123.770 59.243,127.000 57.718,127.000 57.718,126.400 58.518,126.400 58.518,123.300 57.718,123.300 57.718,122.300" style="fill:none;stroke-width:0.050000mm;stroke:black"/>
<polygon points="77.056,122.300 77.056,123.300 76.256,123.300 76.256,126.400 77.056,126.400 77.056,132.200 76.256,132.200 76.256,135.300 77.056,135.300 77.056,136.300 91.056,136.300 91.056,135.300 91.856,135.300 91.856,132.200 91.056,132.200 91.056,126.400 91.856,126.400 91.856,123.300 91.056,123.300 91.056,122.300" style="fill:none;stroke-width:0.050000mm;stroke:black"/>
<polygon points="98.487,122.300 98.487,123.300 97.687,123.300 97.687,126.400 98.487,126.400 98.487,132.200 97.687,132.200 97.687,135.300 98.487,135.300 98.487,136.300 112.487,136.300 112.487,135.300 113.287,135.300 113.287,132.200 112.487,132.200 112.487,126.400 113.287,126.400 113.287,123.300 112.487,123.300 112.487,122.300" style="fill:none;stroke-width:0.050000mm;stroke:black"/>
<polygon points="119.918,122.300 119.918,123.300 119.118,123.300 119.118,126.400 119.918,126.400 119.918,132.200 119.118,132.200 119.118,135.300 119.918,135.300 119.918,136.300 133.918,136.300 133.918,135.300 134.718,135.300 134.718,132.200 133.918,132.200 133.918,126.400 134.718,126.400 134.718,123.300 133.918,123.300 133.918,122.300" style="fill:none;stroke-width:0.050000mm;stroke:black"/>
<polygon points="141.350,122.300 141.350,123.300 140.550,123.300 140.550,126.400 141.350,126.400 141.350,132.200 140.550,132.200 140.550,135.300 141.350,135.300 141.350,136.300 155.350,136.300 155.350,135.300 156.150,135.300 156.150,132.200 155.350,132.200 155.350,126.400 156.150,126.400 156.150,123.300 155.350,123.300 155.350,122.300" style="fill:none;stroke-width:0.050000mm;stroke:black"/>
<polygon points="160.400,122.300 160.400,123.300 159.600,123.300 159.600,126.400 160.400,126.400 160.400,132.200 159.600,132.200 159.600,135.300 160.400,135.300 160.400,136.300 174.400,136.300 174.400,135.300 175.200,135.300 175.200,132.200 174.400,132.200 174.400,126.400 175.200,126.400 175.200,123.300 174.400,123.300 174.400,122.300" style="fill:none;stroke-width:0.050000mm;stroke:black"/>
<polygon points="179.450,122.300 179.450,123.300 178.650,123.300 178.650,126.400 179.450,126.400 179.450,132.200 178.650,132.200 178.650,135.300 179.450,135.300 179.450,136.300 193.450,136.300 193.450,135.300 194.250,135.300 194.250,132.200 193.450,132.200 193.450,126.400 194.250,126.400 194.250,123.300 193.450,123.300 193.450,122.300" style="fill:none;stroke-width:0.050000mm;stroke:black"/>
<polygon points="31.812,103.250 31.812,104.250 31.012,104.250 31.012,107.350 31.812,107.350 31.812,113.150 31.012,113.150 31.012,116.250 31.812,116.250 31.812,117.250 45.812,117.250 45.812,116.250 46.612,116.250 46.612,113.150 45.812,113.150 45.812,107.350 46.612,107.350 46.612,104.250 45.812,104.250 45.812,103.250" style="fill:none;stroke-width:0.050000mm;stroke:black"/>
<polygon points="50.862,103.250 50.862,104.250 50.062,104.250 50.062,107.350 50.862,107.350 50.862,113.150 50.062,113.150 50.062,116.250 50.862,116.250 50.862,117.250 64.861,117.250 64.861,116.250 65.662,116.250 65.662,113.150 64.861,113.150 64.861,107.350 65.662,107.350 65.662,104.250 64.861,104.250 64.861,103.250" style="fill:none;stroke-width:0.050000mm;stroke:black"/>
<polygon points="69.912,103.250 69.912,104.250 69.112,104.250 69.112,107.350 69.912,107.350 69.912,113.150 69.112,113.150 69.112,116.250 69.912,116.250 69.912,117.250 83.912,117.250 83.912,116.250 84.712,116.250 84.712,113.150 83.912,113.150 83.912,107.350 84.712,107.350 84.712,104.250 83.912,104.250 83.912,103.250" style="fill:none;stroke-width:0.050000mm;stroke:black"/>
<polygon points="88.962,103.250 88.962,104.250 88.162,104.250 88.162,107.350 88.962,107.350 88.962,113.150 88.162,113.150 88.162,116.250 88.962,116.250 88.962,117.250 102.962,117.250 102.962,116.250 103.762,116.250 103.762,113.150 102.962,113.150 102.962,107.350 103.762,107.350 103.762,104.250 102.962,104.250 102.962,103.250" style="fill:none;stroke-width:0.050000mm;stroke:black"/>
<polygon points="108.012,103.250 108.012,104.250 107.212,104.250 107.212,107.350 108.012,107.350 108.012,113.150 107.212,113.150 107.212,116.250 108.012,116.250 108.012,117.250 122.012,117.250 122.012,116.250 122.812,116.250 122.812,113.150 122.012,113.150 122.012,107.350 122.812,107.350 122.812,104.250 122.012,104.250 122.012,103.250" style="fill:none;stroke-width:0.050000mm;stroke:black"/>
<polygon points="134.206,103.250 134.206,104.250 133.406,104.250 133.406,107.350 134.206,107.350 134.206,113.150 133.406,113.150 133.406,116.250 134.206,116.250 134.206,117.250 148.206,117.250 148.206,116.250 149.006,116.250 149.006,113.150 148.206,113.150 148.206,107.350 149.006,107.350 149.006,104.250 148.206,104.250 148.206,103.250" style="fill:none;stroke-width:0.050000mm;stroke:black"/>
<polygon points="160.399,103.250 160.399,104.250 159.599,104.250 159.599,107.350 160.399,107.350 160.399,113.150 159.599,113.150 159.599,116.250 160.399,116.250 160.399,117.250 174.399,117.250 174.399,116.250 175.200,116.250 175.200,113.150 174.399,113.150 174.399,107.350 175.200,107.350 175.200,104.250 174.399,104.250 174.399,103.250" style="fill:none;stroke-width:0.050000mm;stroke:black"/>
<polygon points="179.450,103.250 179.450,104.250 178.649,104.250 178.649,107.350 179.450,107.350 179.450,113.150 178.649,113.150 178.649,116.250 179.450,116.250 179.450,117.250 193.450,117.250 193.450,116.250 194.250,116.250 194.250,113.150 193.450,113.150 193.450,107.350 194.250,107.350 194.250,104.250 193.450,104.250 193.450,103.250" style="fill:none;stroke-width:0.050000mm;stroke:black"/>
<polygon points="22.287,84.200 22.287,85.200 21.487,85.200 21.487,88.300 22.287,88.300 22.287,94.100 21.487,94.100 21.487,97.200 22.287,97.200 22.287,98.200 36.287,98.200 36.287,97.200 37.087,97.200 37.087,94.100 36.287,94.100 36.287,88.300 37.087,88.300 37.087,85.200 36.287,85.200 36.287,84.200" style="fill:none;stroke-width:0.050000mm;stroke:black"/>
<polygon points="41.337,84.200 41.337,85.200 40.537,85.200 40.537,88.300 41.337,88.300 41.337,94.100 40.537,94.100 40.537,97.200 41.337,97.200 41.337,98.200 55.337,98.200 55.337,97.200 56.137,97.200 56.137,94.100 55.337,94.100 55.337,88.300 56.137,88.300 56.137,85.200 55.337,85.200 55.337,84.200" style="fill:none;stroke-width:0.050000mm;stroke:black"/>
<polygon points="60.387,84.200 60.387,85.200 59.587,85.200 59.587,88.300 60.387,88.300 60.387,94.100 59.587,94.100 59.587,97.200 60.387,97.200 60.387,98.200 74.387,98.200 74.387,97.200 75.187,97.200 75.187,94.100 74.387,94.100 74.387,88.300 75.187,88.300 75.187,85.200 74.387,85.200 74.387,84.200" style="fill:none;stroke-width:0.050000mm;stroke:black"/>
<polygon points="79.437,84.200 79.437,85.200 78.637,85.200 78.637,88.300 79.437,88.300 79.437,94.100 78.637,94.100 78.637,97.200 79.437,97.200 79.437,98.200 93.437,98.200 93.437,97.200 94.237,97.200 94.237,94.100 93.437,94.100 93.437,88.300 94.237,88.300 94.237,85.200 93.437,85.200 93.437,84.200" style="fill:none;stroke-width:0.050000mm;stroke:black"/>
<polygon points="98.487,84.200 98.487,85.200 97.687,85.200 97.687,88.300 98.487,88.300 98.487,94.100 97.687,94.100 97.687,97.200 98.487,97.200 98.487,98.200 112.487,98.200 112.487,97.200 113.287,97.200 113.287,94.100 112.487,94.100 112.487,88.300 113.287,88.300 113.287,85.200 112.487,85.200 112.487,84.200" style="fill:none;stroke-width:0.050000mm;stroke:black"/>
<polygon points="117.537,84.200 117.537,85.200 116.737,85.200 116.737,88.300 117.537,88.300 117.537,94.100 116.737,94.100 116.737,97.200 117.537,97.200 117.537,98.200 131.537,98.200 131.537,97.200 132.337,97.200 132.337,94.100 131.537,94.100 131.537,88.300 132.337,88.300 132.337,85.200 131.537,85.200 131.537,84.200" style="fill:none;stroke-width:0.050000mm;stroke:black"/>
<polygon points="136.587,84.200 136.587,85.200 135.787,85.200 135.787,88.300 136.587,88.300 136.587,94.100 135.787,94.100 135.787,97.200 136.587,97.200 136.587,98.200 150.587,98.200 150.587,97.200 151.387,97.200 151.387,94.100 150.587,94.100 150.587,88.300 151.387,88.300 151.387,85.200 150.587,85.200 150.587,84.200" style="fill:none;stroke-width:0.050000mm;stroke:black"/>
<polygon points="179.450,84.200 179.450,85.200 178.649,85.200 178.649,88.300 179.450,88.300 179.450,94.100 178.649,94.100 178.649,97.200 179.450,97.200 179.450,98.200 193.450,98.200 193.450,97.200 194.250,97.200 194.250,94.100 193.450,94.100 193.450,88.300 194.250,88.300 194.250,85.200 193.450,85.200 193.450,84.200" style="fill:none;stroke-width:0.050000mm;stroke:black"/>
<polygon points="164.518,65.575 164.518,66.400 158.248,66.400 158.248,68.125 157.048,68.125 157.048,71.425 158.248,71.425 158.248,73.150 162.718,73.150 162.718,74.675 162.118,74.675 162.118,73.875 159.018,73.875 159.018,74.675 158.018,74.675 158.018,88.675 159.018,88.675 159.018,89.475 162.118,89.475 162.118,88.675 162.718,88.675 162.718,90.200 158.248,90.200 158.248,91.925 157.048,91.925 157.048,95.225 158.248,95.225 158.248,96.950 164.518,96.950 164.518,97.775 167.318,97.775 167.318,96.950 170.548,96.950 170.548,90.200 167.318,90.200 167.318,88.675 167.918,88.675 167.918,89.475 171.018,89.475 171.018,88.675 172.018,88.675 172.018,74.675 171.018,74.675 171.018,73.875 167.918,73.875 167.918,74.675 167.318,74.675 167.318,73.150 170.548,73.150 170.548,66.400 167.318,66.400 167.318,65.575" style="fill:none;stroke-width:0.050000mm;stroke:black"/>
<polygon points="17.525,65.150 17.525,66.150 16.724,66.150 16.724,69.250 17.525,69.250 17.525,75.050 16.724,75.050 16.724,78.150 17.525,78.150 17.525,79.150 31.525,79.150 31.525,78.150 32.323,78.150 32.323,75.050 31.525,75.050 31.525,69.250 32.323,69.250 32.323,66.150 31.525,66.150 31.525,65.150" style="fill:none;stroke-width:0.050000mm;stroke:black"/>
<polygon points="36.575,65.150 36.575,66.150 35.775,66.150 35.775,69.250 36.575,69.250 36.575,75.050 35.775,75.050 35.775,78.150 36.575,78.150 36.575,79.150 50.575,79.150 50.575,78.150 51.375,78.150 51.375,75.050 50.575,75.050 50.575,69.250 51.375,69.250 51.375,66.150 50.575,66.150 50.575,65.150" style="fill:none;stroke-width:0.050000mm;stroke:black"/>
<polygon points="55.625,65.150 55.625,66.150 54.825,66.150 54.825,69.250 55.625,69.250 55.625,75.050 54.825,75.050 54.825,78.150 55.625,78.150 55.625,79.150 69.625,79.150 69.625,78.150 70.425,78.150 70.425,75.050 69.625,75.050 69.625,69.250 70.425,69.250 70.425,66.150 69.625,66.150 69.625,65.150" style="fill:none;stroke-width:0.050000mm;stroke:black"/>
<polygon points="74.675,65.150 74.675,66.150 73.875,66.150 73.875,69.250 74.675,69.250 74.675,75.050 73.875,75.050 73.875,78.150 74.675,78.150 74.675,79.150 88.675,79.150 88.675,78.150 89.475,78.150 89.475,75.050 88.675,75.050 88.675,69.250 89.475,69.250 89.475,66.150 88.675,66.150 88.675,65.150" style="fill:none;stroke-width:0.050000mm;stroke:black"/>
<polygon points="93.725,65.150 93.725,66.150 92.925,66.150 92.925,69.250 93.725,69.250 93.725,75.050 92.925,75.050 92.925,78.150 93.725,78.150 93.725,79.150 107.725,79.150 107.725,78.150 108.524,78.150 108.524,75.050 107.725,75.050 107.725,69.250 108.524,69.250 108.524,66.150 107.725,66.150 107.725,65.150" style="fill:none;stroke-width:0.050000mm;stroke:black"/>
<polygon points="112.774,65.150 112.774,66.150 111.975,66.150 111.975,69.250 112.774,69.250 112.774,75.050 111.975,75.050 111.975,78.150 112.774,78.150 112.774,79.150 126.774,79.150 126.774,78.150 127.574,78.150 127.574,75.050 126.774,75.050 126.774,69.250 127.574,69.250 127.574,66.150 126.774,66.150 126.774,65.150" style="fill:none;stroke-width:0.050000mm;stroke:black"/>
<polygon points="131.825,65.150 131.825,66.150 131.024,66.150 131.024,69.250 131.825,69.250 131.825,75.050 131.024,75.050 131.024,78.150 131.825,78.150 131.825,79.150 145.825,79.150 145.825,78.150 146.625,78.150 146.625,75.050 145.825,75.050 145.825,69.250 146.625,69.250 146.625,66.150 145.825,66.150 145.825,65.150" style="fill:none;stroke-width:0.050000mm;stroke:black"/>
<polygon points="179.450,65.150 179.450,66.150 178.649,66.150 178.649,69.250 179.450,69.250 179.450,75.050 178.649,75.050 178.649,78.150 179.450,78.150 179.450,79.150 193.450,79.150 193.450,78.150 194.250,78.150 194.250,75.050 193.450,75.050 193.450,69.250 194.250,69.250 194.250,66.150 193.450,66.150 193.450,65.150" style="fill:none;stroke-width:0.050000mm;stroke:black"/>
<polygon points="150.875,46.100 150.875,47.100 150.075,47.100 150.075,50.200 150.875,50.200 150.875,50.800 149.350,50.800 149.350,47.570 142.600,47.570 142.600,50.800 141.775,50.800 141.775,53.600 142.600,53.600 142.600,59.870 144.325,59.870 144.325,61.070 147.625,61.070 147.625,59.870 149.350,59.870 149.350,55.400 150.875,55.400 150.875,56.000 150.075,56.000 150.075,59.100 150.875,59.100 150.875,60.100 164.875,60.100 164.875,59.100 165.675,59.100 165.675,56.000 164.875,56.000 164.875,55.400 166.400,55.400 166.400,59.870 168.125,59.870 168.125,61.070 171.425,61.070 171.425,59.870 173.150,59.870 173.150,53.600 173.975,53.600 173.975,50.800 173.150,50.800 173.150,47.570 166.400,47.570 166.400,50.800 164.875,50.800 164.875,50.200 165.675,50.200 165.675,47.100 164.875,47.100 164.875,46.100" style="fill:none;stroke-width:0.050000mm;stroke:black"/>
<polygon points="27.049,46.100 27.049,47.100 26.249,47.100 26.249,50.200 27.049,50.200 27.049,56.000 26.249,56.000 26.249,59.100 27.049,59.100 27.049,60.100 41.050,60.100 41.050,59.100 41.849,59.100 41.849,56.000 41.050,56.000 41.050,50.200 41.849,50.200 41.849,47.100 41.050,47.100 41.050,46.100" style="fill:none;stroke-width:0.050000mm;stroke:black"/>
<polygon points="46.099,46.100 46.099,47.100 45.300,47.100 45.300,50.200 46.099,50.200 46.099,56.000 45.300,56.000 45.300,59.100 46.099,59.100 46.099,60.100 60.099,60.100 60.099,59.100 60.899,59.100 60.899,56.000 60.099,56.000 60.099,50.200 60.899,50.200 60.899,47.100 60.099,47.100 60.099,46.100" style="fill:none;stroke-width:0.050000mm;stroke:black"/>
<polygon points="65.149,46.100 65.149,47.100 64.349,47.100 64.349,50.200 65.149,50.200 65.149,56.000 64.349,56.000 64.349,59.100 65.149,59.100 65.149,60.100 79.149,60.100 79.149,59.100 79.949,59.100 79.949,56.000 79.149,56.000 79.149,50.200 79.949,50.200 79.949,47.100 79.149,47.100 79.149,46.100" style="fill:none;stroke-width:0.050000mm;stroke:black"/>
<polygon points="84.199,46.100 84.199,47.100 83.399,47.100 83.399,50.200 84.199,50.200 84.199,56.000 83.399,56.000 83.399,59.100 84.199,59.100 84.199,60.100 98.199,60.100 98.199,59.100 98.999,59.100 98.999,56.000 98.199,56.000 98.199,50.200 98.999,50.200 98.999,47.100 98.199,47.100 98.199,46.100" style="fill:none;stroke-width:0.050000mm;stroke:black"/>
<polygon points="103.249,46.100 103.249,47.100 102.449,47.100 102.449,50.200 103.249,50.200 103.249,56.000 102.449,56.000 102.449,59.100 103.249,59.100 103.249,60.100 117.249,60.100 117.249,59.100 118.049,59.100 118.049,56.000 117.249,56.000 117.249,50.200 118.049,50.200 118.049,47.100 117.249,47.100 117.249,46.100" style="fill:none;stroke-width:0.050000mm;stroke:black"/>
<polygon points="122.299,46.100 122.299,47.100 121.499,47.100 121.499,50.200 122.299,50.200 122.299,56.000 121.499,56.000 121.499,59.100 122.299,59.100 122.299,60.100 136.299,60.100 136.299,59.100 137.100,59.100 137.100,56.000 136.299,56.000 136.299,50.200 137.100,50.200 137.100,47.100 136.299,47.100 136.299,46.100" style="fill:none;stroke-width:0.050000mm;stroke:black"/>
<polygon points="179.450,46.100 179.450,47.100 178.649,47.100 178.649,50.200 179.450,50.200 179.450,56.000 178.649,56.000 178.649,59.100 179.450,59.100 179.450,60.100 193.450,60.100 193.450,59.100 194.250,59.100 194.250,56.000 193.450,56.000 193.450,50.200 194.250,50.200 194.250,47.100 193.450,47.100 193.450,46.100" style="fill:none;stroke-width:0.050000mm;stroke:black"/>
<polygon points="27.049,22.287 27.049,23.287 26.249,23.287 26.249,26.387 27.049,26.387 27.049,32.186 26.249,32.186 26.249,35.287 27.049,35.287 27.049,36.287 41.050,36.287 41.050,35.287 41.849,35.287 41.849,32.186 41.050,32.186 41.050,26.387 41.849,26.387 41.849,23.287 41.050,23.287 41.050,22.287" style="fill:none;stroke-width:0.050000mm;stroke:black"/>
<polygon points="46.099,22.287 46.099,23.287 45.300,23.287 45.300,26.387 46.099,26.387 46.099,32.186 45.300,32.186 45.300,35.287 46.099,35.287 46.099,36.287 60.099,36.287 60.099,35.287 60.899,35.287 60.899,32.186 60.099,32.186 60.099,26.387 60.899,26.387 60.899,23.287 60.099,23.287 60.099,22.287" style="fill:none;stroke-width:0.050000mm;stroke:black"/>
<polygon points="65.149,22.287 65.149,23.287 64.349,23.287 64.349,26.387 65.149,26.387 65.149,32.186 64.349,32.186 64.349,35.287 65.149,35.287 65.149,36.287 79.149,36.287 79.149,35.287 79.949,35.287 79.949,32.186 79.149,32.186 79.149,26.387 79.949,26.387 79.949,23.287 79.149,23.287 79.149,22.287" style="fill:none;stroke-width:0.050000mm;stroke:black"/>
<polygon points="84.199,22.287 84.199,23.287 83.399,23.287 83.399,26.387 84.199,26.387 84.199,32.186 83.399,32.186 83.399,35.287 84.199,35.287 84.199,36.287 98.199,36.287 98.199,35.287 98.999,35.287 98.999,32.186 98.199,32.186 98.199,26.387 98.999,26.387 98.999,23.287 98.199,23.287 98.199,22.287" style="fill:none;stroke-width:0.050000mm;stroke:black"/>
<polygon points="103.249,22.287 103.249,23.287 102.449,23.287 102.449,26.387 103.249,26.387 103.249,32.186 102.449,32.186 102.449,35.287 103.249,35.287 103.249,36.287 117.249,36.287 117.249,35.287 118.049,35.287 118.049,32.186 117.249,32.186 117.249,26.387 118.049,26.387 118.049,23.287 117.249,23.287 117.249,22.287" style="fill:none;stroke-width:0.050000mm;stroke:black"/>
<polygon points="122.299,22.287 122.299,23.287 121.499,23.287 121.499,26.387 122.299,26.387 122.299,32.186 121.499,32.186 121.499,35.287 122.299,35.287 122.299,36.287 136.299,36.287 136.299,35.287 137.100,35.287 137.100,32.186 136.299,32.186 136.299,26.387 137.100,26.387 137.100,23.287 136.299,23.287 136.299,22.287" style="fill:none;stroke-width:0.050000mm;stroke:black"/>
<polygon points="141.350,22.287 141.350,23.287 140.549,23.287 140.549,26.387 141.350,26.387 141.350,32.186 140.549,32.186 140.549,35.287 141.350,35.287 141.350,36.287 155.350,36.287 155.350,35.287 156.150,35.287 156.150,32.186 155.350,32.186 155.350,26.387 156.150,26.387 156.150,23.287 155.350,23.287 155.350,22.287" style="fill:none;stroke-width:0.050000mm;stroke:black"/>
<polygon points="160.400,22.287 160.400,23.287 159.600,23.287 159.600,26.387 160.400,26.387 160.400,32.186 159.600,32.186 159.600,35.287 160.400,35.287 160.400,36.287 174.400,36.287 174.400,35.287 175.200,35.287 175.200,32.186 174.400,32.186 174.400,26.387 175.200,26.387 175.200,23.287 174.400,23.287 174.400,22.287" style="fill:none;stroke-width:0.050000mm;stroke:black"/>
<polygon points="179.450,22.287 179.450,23.287 178.650,23.287 178.650,26.387 179.450,26.387 179.450,32.186 178.650,32.186 178.650,35.287 179.450,35.287 179.450,36.287 193.450,36.287 193.450,35.287 194.250,35.287 194.250,32.186 193.450,32.186 193.450,26.387 194.250,26.387 194.250,23.287 193.450,23.287 193.450,22.287" style="fill:none;stroke-width:0.050000mm;stroke:black"/>
</svg>