
  <svg width='543px'
       height='381px'
       viewBox='0 0 543 381'
       xmlns='http://www.w3.org/2000/svg'
       xmlns:xlink="http://www.w3.org/1999/xlink">

    <style type='text/css'>
    .keycap .border { stroke: black; stroke-width: 2; }
    .keycap .inner.border { stroke: rgba(0,0,0,.1); }
    </style>
    <defs>
      <linearGradient id="DCS">
        <stop offset="0%" stop-color="black" stop-opacity="0"/>
        <stop offset="40%" stop-color="black" stop-opacity="0.1"/>
        <stop offset="60%" stop-color="black" stop-opacity="0.1"/>
        <stop offset="100%" stop-color="black" stop-opacity="0"/>
      </linearGradient>
      <linearGradient id="SPACE" x1="0%" x2="0%" y1="0%" y2="100%">
        <stop offset="0%" stop-color="black" stop-opacity="0.1"/>
        <stop offset="20%" stop-color="black" stop-opacity="0.0"/>
        <stop offset="40%" stop-color="black" stop-opacity="0.0"/>
        <stop offset="100%" stop-color="black" stop-opacity="0.1"/>
      </linearGradient>
      <radialGradient id="DSA">
        <stop offset="0%" stop-color="black" stop-opacity="0.1"/>
        <stop offset="10%" stop-color="black" stop-opacity="0.1"/>
        <stop offset="100%" stop-color="black" stop-opacity="0"/>
      </radialGradient>
      <radialGradient id="SA" xlink:href="#DSA" />
    </defs>

    <g transform='translate(10,10)'>
      <rect width="523" height="361"
            stroke="#ddd" stroke-width="1" fill="#eeeeee" rx="6"/>
      <g transform='translate(5,5)'>
        
  <g class='  keycap'
  >

  
    <!-- Outer Border -->
    <rect x="28" y="14.5"
          width="52" height="52"
          rx="5" fill="#00634b" class="outer border"/>
    
    <!-- Outer Fill -->
    <rect x="28" y="14.5"
          width="52" height="52"
          rx="5" fill="#00634b"/>
    

    
      <!-- Inner Border -->
      <rect x="34" y="17.5"
            width="40" height="40"
            rx="5" fill="#21765d" class="inner border"/>
      
      <!-- Inner Fill -->
      <rect x="34" y="17.5"
            width="40" height="40"
            rx="5" fill="#21765d"/>
      
      

     
   
  </g>

  <g class='  keycap'
  >

  
    <!-- Outer Border -->
    <rect x="82" y="14.5"
          width="52" height="52"
          rx="5" fill="#00634b" class="outer border"/>
    
    <!-- Outer Fill -->
    <rect x="82" y="14.5"
          width="52" height="52"
          rx="5" fill="#00634b"/>
    

    
      <!-- Inner Border -->
      <rect x="88" y="17.5"
            width="40" height="40"
            rx="5" fill="#21765d" class="inner border"/>
      
      <!-- Inner Fill -->
      <rect x="88" y="17.5"
            width="40" height="40"
            rx="5" fill="#21765d"/>
      
      

     
   
  </g>

  <g class='  keycap'
  >

  
    <!-- Outer Border -->
    <rect x="136" y="14.5"
          width="52" height="52"
          rx="5" fill="#fff1db" class="outer border"/>
    
    <!-- Outer Fill -->
    <rect x="136" y="14.5"
          width="52" height="52"
          rx="5" fill="#fff1db"/>
    

    
      <!-- Inner Border -->
      <rect x="142" y="17.5"
            width="40" height="40"
            rx="5" fill="#fffde7" class="inner border"/>
      
      <!-- Inner Fill -->
      <rect x="142" y="17.5"
            width="40" height="40"
            rx="5" fill="#fffde7"/>
      
      

     
   
  </g>

  <g class='  keycap'
  >

  
    <!-- Outer Border -->
    <rect x="190" y="14.5"
          width="52" height="52"
          rx="5" fill="#fff1db" class="outer border"/>
    
    <!-- Outer Fill -->
    <rect x="190" y="14.5"
          width="52" height="52"
          rx="5" fill="#fff1db"/>
    

    
      <!-- Inner Border -->
      <rect x="196" y="17.5"
            width="40" height="40"
            rx="5" fill="#fffde7" class="inner border"/>
      
      <!-- Inner Fill -->
      <rect x="196" y="17.5"
            width="40" height="40"
            rx="5" fill="#fffde7"/>
      
      

     
   
  </g>

  <g class='  keycap'
  >

  
    <!-- Outer Border -->
    <rect x="244" y="14.5"
          width="52" height="52"
          rx="5" fill="#fff1db" class="outer border"/>
    
    <!-- Outer Fill -->
    <rect x="244" y="14.5"
          width="52" height="52"
          rx="5" fill="#fff1db"/>
    

    
      <!-- Inner Border -->
      <rect x="250" y="17.5"
            width="40" height="40"
            rx="5" fill="#fffde7" class="inner border"/>
      
      <!-- Inner Fill -->
      <rect x="250" y="17.5"
            width="40" height="40"
            rx="5" fill="#fffde7"/>
      
      

     
   
  </g>

  <g class='  keycap'
  >

  
    <!-- Outer Border -->
    <rect x="298" y="14.5"
          width="52" height="52"
          rx="5" fill="#fff1db" class="outer border"/>
    
    <!-- Outer Fill -->
    <rect x="298" y="14.5"
          width="52" height="52"
          rx="5" fill="#fff1db"/>
    

    
      <!-- Inner Border -->
      <rect x="304" y="17.5"
            width="40" height="40"
            rx="5" fill="#fffde7" class="inner border"/>
      
      <!-- Inner Fill -->
      <rect x="304" y="17.5"
            width="40" height="40"
            rx="5" fill="#fffde7"/>
      
      

     
   
  </g>

  <g class='  keycap'
  >

  
    <!-- Outer Border -->
    <rect x="352" y="14.5"
          width="52" height="52"
          rx="5" fill="#00634b" class="outer border"/>
    
    <!-- Outer Fill -->
    <rect x="352" y="14.5"
          width="52" height="52"
          rx="5" fill="#00634b"/>
    

    
      <!-- Inner Border -->
      <rect x="358" y="17.5"
            width="40" height="40"
            rx="5" fill="#21765d" class="inner border"/>
      
      <!-- Inner Fill -->
      <rect x="358" y="17.5"
            width="40" height="40"
            rx="5" fill="#21765d"/>
      
      

     
   
  </g>

  <g class='  keycap'
  >

  
    <!-- Outer Border -->
    <rect x="406" y="14.5"
          width="52" height="52"
          rx="5" fill="#00634b" class="outer border"/>
    
    <!-- Outer Fill -->
    <rect x="406" y="14.5"
          width="52" height="52"
          rx="5" fill="#00634b"/>
    

    
      <!-- Inner Border -->
      <rect x="412" y="17.5"
            width="40" height="40"
            rx="5" fill="#21765d" class="inner border"/>
      
      <!-- Inner Fill -->
      <rect x="412" y="17.5"
            width="40" height="40"
            rx="5" fill="#21765d"/>
      
      

     
   
  </g>

  <g class='  keycap'
  >

  
    <!-- Outer Border -->
    <rect x="460" y="14.5"
          width="52" height="52"
          rx="5" fill="#00634b" class="outer border"/>
    
    <!-- Outer Fill -->
    <rect x="460" y="14.5"
          width="52" height="52"
          rx="5" fill="#00634b"/>
    

    
      <!-- Inner Border -->
      <rect x="466" y="17.5"
            width="40" height="40"
            rx="5" fill="#21765d" class="inner border"/>
      
      <!-- Inner Fill -->
      <rect x="466" y="17.5"
            width="40" height="40"
            rx="5" fill="#21765d"/>
      
      

     
   
  </g>

  <g class='  keycap'
  >

  
    <!-- Outer Border -->
    <rect x="28" y="82"
          width="52" height="52"
          rx="5" fill="#fff1db" class="outer border"/>
    
    <!-- Outer Fill -->
    <rect x="28" y="82"
          width="52" height="52"
          rx="5" fill="#fff1db"/>
    

    
      <!-- Inner Border -->
      <rect x="34" y="85"
            width="40" height="40"
            rx="5" fill="#fffde7" class="inner border"/>
      
      <!-- Inner Fill -->
      <rect x="34" y="85"
            width="40" height="40"
            rx="5" fill="#fffde7"/>
      
      

     
   
  </g>

  <g class='  keycap'
  >

  
    <!-- Outer Border -->
    <rect x="82" y="82"
          width="52" height="52"
          rx="5" fill="#fff1db" class="outer border"/>
    
    <!-- Outer Fill -->
    <rect x="82" y="82"
          width="52" height="52"
          rx="5" fill="#fff1db"/>
    

    
      <!-- Inner Border -->
      <rect x="88" y="85"
            width="40" height="40"
            rx="5" fill="#fffde7" class="inner border"/>
      
      <!-- Inner Fill -->
      <rect x="88" y="85"
            width="40" height="40"
            rx="5" fill="#fffde7"/>
      
      

     
   
  </g>

  <g class='  keycap'
  >

  
    <!-- Outer Border -->
    <rect x="136" y="82"
          width="52" height="52"
          rx="5" fill="#fff1db" class="outer border"/>
    
    <!-- Outer Fill -->
    <rect x="136" y="82"
          width="52" height="52"
          rx="5" fill="#fff1db"/>
    

    
      <!-- Inner Border -->
      <rect x="142" y="85"
            width="40" height="40"
            rx="5" fill="#fffde7" class="inner border"/>
      
      <!-- Inner Fill -->
      <rect x="142" y="85"
            width="40" height="40"
            rx="5" fill="#fffde7"/>
      
      

     
   
  </g>

  <g class='  keycap'
  >

  
    <!-- Outer Border -->
    <rect x="190" y="82"
          width="52" height="52"
          rx="5" fill="#fff1db" class="outer border"/>
    
    <!-- Outer Fill -->
    <rect x="190" y="82"
          width="52" height="52"
          rx="5" fill="#fff1db"/>
    

    
      <!-- Inner Border -->
      <rect x="196" y="85"
            width="40" height="40"
            rx="5" fill="#fffde7" class="inner border"/>
      
      <!-- Inner Fill -->
      <rect x="196" y="85"
            width="40" height="40"
            rx="5" fill="#fffde7"/>
      
      

     
   
  </g>

  <g class='  keycap'
  >

  
    <!-- Outer Border -->
    <rect x="244" y="82"
          width="52" height="52"
          rx="5" fill="#fff1db" class="outer border"/>
    
    <!-- Outer Fill -->
    <rect x="244" y="82"
          width="52" height="52"
          rx="5" fill="#fff1db"/>
    

    
      <!-- Inner Border -->
      <rect x="250" y="85"
            width="40" height="40"
            rx="5" fill="#fffde7" class="inner border"/>
      
      <!-- Inner Fill -->
      <rect x="250" y="85"
            width="40" height="40"
            rx="5" fill="#fffde7"/>
      
      

     
   
  </g>

  <g class='  keycap'
  >

  
    <!-- Outer Border -->
    <rect x="298" y="82"
          width="52" height="52"
          rx="5" fill="#fff1db" class="outer border"/>
    
    <!-- Outer Fill -->
    <rect x="298" y="82"
          width="52" height="52"
          rx="5" fill="#fff1db"/>
    

    
      <!-- Inner Border -->
      <rect x="304" y="85"
            width="40" height="40"
            rx="5" fill="#fffde7" class="inner border"/>
      
      <!-- Inner Fill -->
      <rect x="304" y="85"
            width="40" height="40"
            rx="5" fill="#fffde7"/>
      
      

     
   
  </g>

  <g class='  keycap'
  >

  
    <!-- Outer Border -->
    <rect x="352" y="82"
          width="106" height="52"
          rx="5" fill="#00634b" class="outer border"/>
    
    <!-- Outer Fill -->
    <rect x="352" y="82"
          width="106" height="52"
          rx="5" fill="#00634b"/>
    

    
      <!-- Inner Border -->
      <rect x="358" y="85"
            width="94" height="40"
            rx="5" fill="#21765d" class="inner border"/>
      
      <!-- Inner Fill -->
      <rect x="358" y="85"
            width="94" height="40"
            rx="5" fill="#21765d"/>
      
      

     
   
  </g>

  <g class='  keycap'
  >

  
    <!-- Outer Border -->
    <rect x="460" y="82"
          width="52" height="52"
          rx="5" fill="#00634b" class="outer border"/>
    
    <!-- Outer Fill -->
    <rect x="460" y="82"
          width="52" height="52"
          rx="5" fill="#00634b"/>
    

    
      <!-- Inner Border -->
      <rect x="466" y="85"
            width="40" height="40"
            rx="5" fill="#21765d" class="inner border"/>
      
      <!-- Inner Fill -->
      <rect x="466" y="85"
            width="40" height="40"
            rx="5" fill="#21765d"/>
      
      

     
   
  </g>

  <g class='  keycap'
  >

  
    <!-- Outer Border -->
    <rect x="1" y="136"
          width="52" height="52"
          rx="5" fill="#fff1db" class="outer border"/>
    
    <!-- Outer Fill -->
    <rect x="1" y="136"
          width="52" height="52"
          rx="5" fill="#fff1db"/>
    

    
      <!-- Inner Border -->
      <rect x="7" y="139"
            width="40" height="40"
            rx="5" fill="#fffde7" class="inner border"/>
      
      <!-- Inner Fill -->
      <rect x="7" y="139"
            width="40" height="40"
            rx="5" fill="#fffde7"/>
      
      

     
   
  </g>

  <g class='  keycap'
  >

  
    <!-- Outer Border -->
    <rect x="55" y="136"
          width="52" height="52"
          rx="5" fill="#fff1db" class="outer border"/>
    
    <!-- Outer Fill -->
    <rect x="55" y="136"
          width="52" height="52"
          rx="5" fill="#fff1db"/>
    

    
      <!-- Inner Border -->
      <rect x="61" y="139"
            width="40" height="40"
            rx="5" fill="#fffde7" class="inner border"/>
      
      <!-- Inner Fill -->
      <rect x="61" y="139"
            width="40" height="40"
            rx="5" fill="#fffde7"/>
      
      

     
   
  </g>

  <g class='  keycap'
  >

  
    <!-- Outer Border -->
    <rect x="109" y="136"
          width="52" height="52"
          rx="5" fill="#fff1db" class="outer border"/>
    
    <!-- Outer Fill -->
    <rect x="109" y="136"
          width="52" height="52"
          rx="5" fill="#fff1db"/>
    

    
      <!-- Inner Border -->
      <rect x="115" y="139"
            width="40" height="40"
            rx="5" fill="#fffde7" class="inner border"/>
      
      <!-- Inner Fill -->
      <rect x="115" y="139"
            width="40" height="40"
            rx="5" fill="#fffde7"/>
      
      

     
   
  </g>

  <g class='  keycap'
  >

  
    <!-- Outer Border -->
    <rect x="163" y="136"
          width="52" height="52"
          rx="5" fill="#fff1db" class="outer border"/>
    
    <!-- Outer Fill -->
    <rect x="163" y="136"
          width="52" height="52"
          rx="5" fill="#fff1db"/>
    

    
      <!-- Inner Border -->
      <rect x="169" y="139"
            width="40" height="40"
            rx="5" fill="#fffde7" class="inner border"/>
      
      <!-- Inner Fill -->
      <rect x="169" y="139"
            width="40" height="40"
            rx="5" fill="#fffde7"/>
      
      

     
   
  </g>

  <g class='  keycap'
  >

  
    <!-- Outer Border -->
    <rect x="217" y="136"
          width="52" height="52"
          rx="5" fill="#fff1db" class="outer border"/>
    
    <!-- Outer Fill -->
    <rect x="217" y="136"
          width="52" height="52"
          rx="5" fill="#fff1db"/>
    

    
      <!-- Inner Border -->
      <rect x="223" y="139"
            width="40" height="40"
            rx="5" fill="#fffde7" class="inner border"/>
      
      <!-- Inner Fill -->
      <rect x="223" y="139"
            width="40" height="40"
            rx="5" fill="#fffde7"/>
      
      

     
   
  </g>

  <g class='  keycap'
  >

  
    <!-- Outer Border -->
    <rect x="271" y="136"
          width="52" height="52"
          rx="5" fill="#fff1db" class="outer border"/>
    
    <!-- Outer Fill -->
    <rect x="271" y="136"
          width="52" height="52"
          rx="5" fill="#fff1db"/>
    

    
      <!-- Inner Border -->
      <rect x="277" y="139"
            width="40" height="40"
            rx="5" fill="#fffde7" class="inner border"/>
      
      <!-- Inner Fill -->
      <rect x="277" y="139"
            width="40" height="40"
            rx="5" fill="#fffde7"/>
      
      

     
   
  </g>

  <g class='  keycap'
  >

  
    <!-- Outer Border -->
    <rect x="325" y="136"
          width="52" height="52"
          rx="5" fill="#fff1db" class="outer border"/>
    
    <!-- Outer Fill -->
    <rect x="325" y="136"
          width="52" height="52"
          rx="5" fill="#fff1db"/>
    

    
      <!-- Inner Border -->
      <rect x="331" y="139"
            width="40" height="40"
            rx="5" fill="#fffde7" class="inner border"/>
      
      <!-- Inner Fill -->
      <rect x="331" y="139"
            width="40" height="40"
            rx="5" fill="#fffde7"/>
      
      

     
   
  </g>

  <g class='  keycap'
  >

  
    <!-- Outer Border -->
    <rect x="392.5" y="136"
          width="65.5" height="106"
          rx="5" fill="#ff4c17" class="outer border"/>
    
      <rect x="379" y="136"
            width="79" height="52"
            rx="5" fill="#ff4c17" class="outer border"/>
    
    <!-- Outer Fill -->
    <rect x="392.5" y="136"
          width="65.5" height="106"
          rx="5" fill="#ff4c17"/>
    
      <rect x="379" y="136"
            width="79" height="52"
            rx="5" fill="#ff4c17"/>
    

    
      <!-- Inner Border -->
      <rect x="398.5" y="139"
            width="53.5" height="94"
            rx="5" fill="#ff7038" class="inner border"/>
      
        <rect x="385" y="139"
              width="67" height="40"
              rx="5" fill="#ff7038" class="inner border"/>
      
      <!-- Inner Fill -->
      <rect x="398.5" y="139"
            width="53.5" height="94"
            rx="5" fill="#ff7038"/>
      
        <rect x="385" y="139"
              width="67" height="40"
              rx="5" fill="#ff7038"/>
      
      

     
   
  </g>

  <g class='  keycap'
  >

  
    <!-- Outer Border -->
    <rect x="460" y="136"
          width="52" height="52"
          rx="5" fill="#00634b" class="outer border"/>
    
    <!-- Outer Fill -->
    <rect x="460" y="136"
          width="52" height="52"
          rx="5" fill="#00634b"/>
    

    
      <!-- Inner Border -->
      <rect x="466" y="139"
            width="40" height="40"
            rx="5" fill="#21765d" class="inner border"/>
      
      <!-- Inner Fill -->
      <rect x="466" y="139"
            width="40" height="40"
            rx="5" fill="#21765d"/>
      
      

     
   
  </g>

  <g class='  keycap'
  >

  
    <!-- Outer Border -->
    <rect x="14.5" y="190"
          width="52" height="52"
          rx="5" fill="#fff1db" class="outer border"/>
    
    <!-- Outer Fill -->
    <rect x="14.5" y="190"
          width="52" height="52"
          rx="5" fill="#fff1db"/>
    

    
      <!-- Inner Border -->
      <rect x="20.5" y="193"
            width="40" height="40"
            rx="5" fill="#fffde7" class="inner border"/>
      
      <!-- Inner Fill -->
      <rect x="20.5" y="193"
            width="40" height="40"
            rx="5" fill="#fffde7"/>
      
      

     
   
  </g>

  <g class='  keycap'
  >

  
    <!-- Outer Border -->
    <rect x="68.5" y="190"
          width="52" height="52"
          rx="5" fill="#fff1db" class="outer border"/>
    
    <!-- Outer Fill -->
    <rect x="68.5" y="190"
          width="52" height="52"
          rx="5" fill="#fff1db"/>
    

    
      <!-- Inner Border -->
      <rect x="74.5" y="193"
            width="40" height="40"
            rx="5" fill="#fffde7" class="inner border"/>
      
      <!-- Inner Fill -->
      <rect x="74.5" y="193"
            width="40" height="40"
            rx="5" fill="#fffde7"/>
      
      

     
   
  </g>

  <g class='  keycap'
  >

  
    <!-- Outer Border -->
    <rect x="122.5" y="190"
          width="52" height="52"
          rx="5" fill="#fff1db" class="outer border"/>
    
    <!-- Outer Fill -->
    <rect x="122.5" y="190"
          width="52" height="52"
          rx="5" fill="#fff1db"/>
    

    
      <!-- Inner Border -->
      <rect x="128.5" y="193"
            width="40" height="40"
            rx="5" fill="#fffde7" class="inner border"/>
      
      <!-- Inner Fill -->
      <rect x="128.5" y="193"
            width="40" height="40"
            rx="5" fill="#fffde7"/>
      
      

     
   
  </g>

  <g class='  keycap'
  >

  
    <!-- Outer Border -->
    <rect x="176.5" y="190"
          width="52" height="52"
          rx="5" fill="#fff1db" class="outer border"/>
    
    <!-- Outer Fill -->
    <rect x="176.5" y="190"
          width="52" height="52"
          rx="5" fill="#fff1db"/>
    

    
      <!-- Inner Border -->
      <rect x="182.5" y="193"
            width="40" height="40"
            rx="5" fill="#fffde7" class="inner border"/>
      
      <!-- Inner Fill -->
      <rect x="182.5" y="193"
            width="40" height="40"
            rx="5" fill="#fffde7"/>
      
      

     
   
  </g>

  <g class='  keycap'
  >

  
    <!-- Outer Border -->
    <rect x="230.5" y="190"
          width="52" height="52"
          rx="5" fill="#fff1db" class="outer border"/>
    
    <!-- Outer Fill -->
    <rect x="230.5" y="190"
          width="52" height="52"
          rx="5" fill="#fff1db"/>
    

    
      <!-- Inner Border -->
      <rect x="236.5" y="193"
            width="40" height="40"
            rx="5" fill="#fffde7" class="inner border"/>
      
      <!-- Inner Fill -->
      <rect x="236.5" y="193"
            width="40" height="40"
            rx="5" fill="#fffde7"/>
      
      

     
   
  </g>

  <g class='  keycap'
  >

  
    <!-- Outer Border -->
    <rect x="284.5" y="190"
          width="52" height="52"
          rx="5" fill="#fff1db" class="outer border"/>
    
    <!-- Outer Fill -->
    <rect x="284.5" y="190"
          width="52" height="52"
          rx="5" fill="#fff1db"/>
    

    
      <!-- Inner Border -->
      <rect x="290.5" y="193"
            width="40" height="40"
            rx="5" fill="#fffde7" class="inner border"/>
      
      <!-- Inner Fill -->
      <rect x="290.5" y="193"
            width="40" height="40"
            rx="5" fill="#fffde7"/>
      
      

     
   
  </g>

  <g class='  keycap'
  >

  
    <!-- Outer Border -->
    <rect x="338.5" y="190"
          width="52" height="52"
          rx="5" fill="#fff1db" class="outer border"/>
    
    <!-- Outer Fill -->
    <rect x="338.5" y="190"
          width="52" height="52"
          rx="5" fill="#fff1db"/>
    

    
      <!-- Inner Border -->
      <rect x="344.5" y="193"
            width="40" height="40"
            rx="5" fill="#fffde7" class="inner border"/>
      
      <!-- Inner Fill -->
      <rect x="344.5" y="193"
            width="40" height="40"
            rx="5" fill="#fffde7"/>
      
      

     
   
  </g>

  <g class='  keycap'
  >

  
    <!-- Outer Border -->
    <rect x="460" y="190"
          width="52" height="52"
          rx="5" fill="#00634b" class="outer border"/>
    
    <!-- Outer Fill -->
    <rect x="460" y="190"
          width="52" height="52"
          rx="5" fill="#00634b"/>
    

    
      <!-- Inner Border -->
      <rect x="466" y="193"
            width="40" height="40"
            rx="5" fill="#21765d" class="inner border"/>
      
      <!-- Inner Fill -->
      <rect x="466" y="193"
            width="40" height="40"
            rx="5" fill="#21765d"/>
      
      

     
   
  </g>

  <g class='  keycap'
  >

  
    <!-- Outer Border -->
    <rect x="41.5" y="244"
          width="52" height="52"
          rx="5" fill="#fff1db" class="outer border"/>
    
    <!-- Outer Fill -->
    <rect x="41.5" y="244"
          width="52" height="52"
          rx="5" fill="#fff1db"/>
    

    
      <!-- Inner Border -->
      <rect x="47.5" y="247"
            width="40" height="40"
            rx="5" fill="#fffde7" class="inner border"/>
      
      <!-- Inner Fill -->
      <rect x="47.5" y="247"
            width="40" height="40"
            rx="5" fill="#fffde7"/>
      
      

     
   
  </g>

  <g class='  keycap'
  >

  
    <!-- Outer Border -->
    <rect x="95.5" y="244"
          width="52" height="52"
          rx="5" fill="#fff1db" class="outer border"/>
    
    <!-- Outer Fill -->
    <rect x="95.5" y="244"
          width="52" height="52"
          rx="5" fill="#fff1db"/>
    

    
      <!-- Inner Border -->
      <rect x="101.5" y="247"
            width="40" height="40"
            rx="5" fill="#fffde7" class="inner border"/>
      
      <!-- Inner Fill -->
      <rect x="101.5" y="247"
            width="40" height="40"
            rx="5" fill="#fffde7"/>
      
      

     
   
  </g>

  <g class='  keycap'
  >

  
    <!-- Outer Border -->
    <rect x="149.5" y="244"
          width="52" height="52"
          rx="5" fill="#fff1db" class="outer border"/>
    
    <!-- Outer Fill -->
    <rect x="149.5" y="244"
          width="52" height="52"
          rx="5" fill="#fff1db"/>
    

    
      <!-- Inner Border -->
      <rect x="155.5" y="247"
            width="40" height="40"
            rx="5" fill="#fffde7" class="inner border"/>
      
      <!-- Inner Fill -->
      <rect x="155.5" y="247"
            width="40" height="40"
            rx="5" fill="#fffde7"/>
      
      

     
   
  </g>

  <g class='  keycap'
  >

  
    <!-- Outer Border -->
    <rect x="203.5" y="244"
          width="52" height="52"
          rx="5" fill="#fff1db" class="outer border"/>
    
    <!-- Outer Fill -->
    <rect x="203.5" y="244"
          width="52" height="52"
          rx="5" fill="#fff1db"/>
    

    
      <!-- Inner Border -->
      <rect x="209.5" y="247"
            width="40" height="40"
            rx="5" fill="#fffde7" class="inner border"/>
      
      <!-- Inner Fill -->
      <rect x="209.5" y="247"
            width="40" height="40"
            rx="5" fill="#fffde7"/>
      
      

     
   
  </g>

  <g class='  keycap'
  >

  
    <!-- Outer Border -->
    <rect x="257.5" y="244"
          width="52" height="52"
          rx="5" fill="#fff1db" class="outer border"/>
    
    <!-- Outer Fill -->
    <rect x="257.5" y="244"
          width="52" height="52"
          rx="5" fill="#fff1db"/>
    

    
      <!-- Inner Border -->
      <rect x="263.5" y="247"
            width="40" height="40"
            rx="5" fill="#fffde7" class="inner border"/>
      
      <!-- Inner Fill -->
      <rect x="263.5" y="247"
            width="40" height="40"
            rx="5" fill="#fffde7"/>
      
      

     
   
  </g>

  <g class='  keycap'
  >

  
    <!-- Outer Border -->
    <rect x="311.5" y="244"
          width="92.5" height="52"
          rx="5" fill="#00634b" class="outer border"/>
    
    <!-- Outer Fill -->
    <rect x="311.5" y="244"
          width="92.5" height="52"
          rx="5" fill="#00634b"/>
    

    
      <!-- Inner Border -->
      <rect x="317.5" y="247"
            width="80.5" height="40"
            rx="5" fill="#21765d" class="inner border"/>
      
      <!-- Inner Fill -->
      <rect x="317.5" y="247"
            width="80.5" height="40"
            rx="5" fill="#21765d"/>
      
      

     
   
  </g>

  <g class='  keycap'
  >

  
    <!-- Outer Border -->
    <rect x="406" y="244"
          width="52" height="52"
          rx="5" fill="#00634b" class="outer border"/>
    
    <!-- Outer Fill -->
    <rect x="406" y="244"
          width="52" height="52"
          rx="5" fill="#00634b"/>
    

    
      <!-- Inner Border -->
      <rect x="412" y="247"
            width="40" height="40"
            rx="5" fill="#21765d" class="inner border"/>
      
      <!-- Inner Fill -->
      <rect x="412" y="247"
            width="40" height="40"
            rx="5" fill="#21765d"/>
      
      

     
   
  </g>

  <g class='  keycap'
  >

  
    <!-- Outer Border -->
    <rect x="460" y="244"
          width="52" height="52"
          rx="5" fill="#00634b" class="outer border"/>
    
    <!-- Outer Fill -->
    <rect x="460" y="244"
          width="52" height="52"
          rx="5" fill="#00634b"/>
    

    
      <!-- Inner Border -->
      <rect x="466" y="247"
            width="40" height="40"
            rx="5" fill="#21765d" class="inner border"/>
      
      <!-- Inner Fill -->
      <rect x="466" y="247"
            width="40" height="40"
            rx="5" fill="#21765d"/>
      
      

     
   
  </g>

  <g class='  keycap'
  >

  
    <!-- Outer Border -->
    <rect x="41.5" y="298"
          width="119.5" height="52"
          rx="5" fill="#00634b" class="outer border"/>
    
    <!-- Outer Fill -->
    <rect x="41.5" y="298"
          width="119.5" height="52"
          rx="5" fill="#00634b"/>
    

    
      <!-- Inner Border -->
      <rect x="47.5" y="301"
            width="107.5" height="40"
            rx="5" fill="#21765d" class="inner border"/>
      
      <!-- Inner Fill -->
      <rect x="47.5" y="301"
            width="107.5" height="40"
            rx="5" fill="#21765d"/>
      
      

     
   
  </g>

  <g class='  keycap'
  >

  
    <!-- Outer Border -->
    <rect x="163" y="298"
          width="65.5" height="52"
          rx="5" fill="#00634b" class="outer border"/>
    
    <!-- Outer Fill -->
    <rect x="163" y="298"
          width="65.5" height="52"
          rx="5" fill="#00634b"/>
    

    
      <!-- Inner Border -->
      <rect x="169" y="301"
            width="53.5" height="40"
            rx="5" fill="#21765d" class="inner border"/>
      
      <!-- Inner Fill -->
      <rect x="169" y="301"
            width="53.5" height="40"
            rx="5" fill="#21765d"/>
      
      

     
   
  </g>

  <g class='  keycap'
  >

  
    <!-- Outer Border -->
    <rect x="230.5" y="298"
          width="52" height="52"
          rx="5" fill="#00634b" class="outer border"/>
    
    <!-- Outer Fill -->
    <rect x="230.5" y="298"
          width="52" height="52"
          rx="5" fill="#00634b"/>
    

    
      <!-- Inner Border -->
      <rect x="236.5" y="301"
            width="40" height="40"
            rx="5" fill="#21765d" class="inner border"/>
      
      <!-- Inner Fill -->
      <rect x="236.5" y="301"
            width="40" height="40"
            rx="5" fill="#21765d"/>
      
      

     
   
  </g>

  <g class='  keycap'
  >

  
    <!-- Outer Border -->
    <rect x="284.5" y="298"
          width="65.5" height="52"
          rx="5" fill="#00634b" class="outer border"/>
    
    <!-- Outer Fill -->
    <rect x="284.5" y="298"
          width="65.5" height="52"
          rx="5" fill="#00634b"/>
    

    
      <!-- Inner Border -->
      <rect x="290.5" y="301"
            width="53.5" height="40"
            rx="5" fill="#21765d" class="inner border"/>
      
      <!-- Inner Fill -->
      <rect x="290.5" y="301"
            width="53.5" height="40"
            rx="5" fill="#21765d"/>
      
      

     
   
  </g>

  <g class='  keycap'
  >

  
    <!-- Outer Border -->
    <rect x="352" y="298"
          width="52" height="52"
          rx="5" fill="#00634b" class="outer border"/>
    
    <!-- Outer Fill -->
    <rect x="352" y="298"
          width="52" height="52"
          rx="5" fill="#00634b"/>
    

    
      <!-- Inner Border -->
      <rect x="358" y="301"
            width="40" height="40"
            rx="5" fill="#21765d" class="inner border"/>
      
      <!-- Inner Fill -->
      <rect x="358" y="301"
            width="40" height="40"
            rx="5" fill="#21765d"/>
      
      

     
   
  </g>

  <g class='  keycap'
  >

  
    <!-- Outer Border -->
    <rect x="406" y="298"
          width="52" height="52"
          rx="5" fill="#00634b" class="outer border"/>
    
    <!-- Outer Fill -->
    <rect x="406" y="298"
          width="52" height="52"
          rx="5" fill="#00634b"/>
    

    
      <!-- Inner Border -->
      <rect x="412" y="301"
            width="40" height="40"
            rx="5" fill="#21765d" class="inner border"/>
      
      <!-- Inner Fill -->
      <rect x="412" y="301"
            width="40" height="40"
            rx="5" fill="#21765d"/>
      
      

     
   
  </g>

  <g class='  keycap'
  >

  
    <!-- Outer Border -->
    <rect x="460" y="298"
          width="52" height="52"
          rx="5" fill="#00634b" class="outer border"/>
    
    <!-- Outer Fill -->
    <rect x="460" y="298"
          width="52" height="52"
          rx="5" fill="#00634b"/>
    

    
      <!-- Inner Border -->
      <rect x="466" y="301"
            width="40" height="40"
            rx="5" fill="#21765d" class="inner border"/>
      
      <!-- Inner Fill -->
      <rect x="466" y="301"
            width="40" height="40"
            rx="5" fill="#21765d"/>
      
      

     
   
  </g>

      </g>
    </g>
  </svg>
